<svg width="500" height="500" viewBox="0 0 500 500" fill="none" xmlns="http://www.w3.org/2000/svg">
<path d="M249.5 468C369.622 468 467 370.622 467 250.5C467 130.378 369.622 33 249.5 33C129.378 33 32 130.378 32 250.5C32 370.622 129.378 468 249.5 468Z" fill="#CACACA" fill-opacity="0.6" stroke="#0465CE" stroke-width="10"/>
<path d="M250 345C302.467 345 345 302.467 345 250C345 197.533 302.467 155 250 155C197.533 155 155 197.533 155 250C155 302.467 197.533 345 250 345Z" fill="#ADADAD" stroke="#0465CE" stroke-width="10"/>
<path d="M279.5 112.5L273.5 98H226L223 112.5C205.713 112.5 184.81 122.258 173.615 127.484L173.206 127.675L157.333 122.5L131.25 149.5L134.875 163C123.875 178 117 199.5 112.905 218.92L101 222.92L101 265.5L112.905 268.5C116 294 123.375 307.5 136.875 327L128.25 342.5L157.333 372L173.206 362.134C192.206 377.5 203.5 382 224 386L227 400H272.5L276.5 386C292.5 386 315.5 375 327.89 363.832L340.89 370.832L369 343.5L363 331.069C375.5 311.5 385.986 288.5 385.986 268L402.5 259L401.5 222.92L385.986 214.761C385.986 197.5 373.5 175.5 362.5 163L367 147L341.89 124L325 131C312.5 118.5 295 112.5 279.5 112.5Z" stroke="#0465CE" stroke-width="10"/>
</svg>
