<svg width="500" height="500" viewBox="0 0 500 500" fill="none" xmlns="http://www.w3.org/2000/svg">
<path d="M249.5 468C369.622 468 467 370.622 467 250.5C467 130.378 369.622 33 249.5 33C129.378 33 32 130.378 32 250.5C32 370.622 129.378 468 249.5 468Z" fill="#CACACA" fill-opacity="0.6" stroke="#0465CE" stroke-width="10"/>
<path d="M250 350C305.228 350 350 305.228 350 250C350 194.771 305.228 150 250 150C194.772 150 150 194.771 150 250C150 305.228 194.772 350 250 350Z" fill="#ADADAD" stroke="#0465CE" stroke-width="10"/>
<path fill-rule="evenodd" clip-rule="evenodd" d="M309.001 123.5C290.083 115.857 280.5 86.8951 261.5 86.8951C235.5 86.8951 228.209 112.693 202.75 123.5C181.576 132.488 153.458 120.253 139.992 133.42C125.323 147.762 134.387 169.767 125 193C116.824 213.236 90.5001 222.5 90.5003 246.5C89.7666 268.001 114.749 280.35 125 304.5C134.341 326.505 126.071 350.834 139.992 364.58C154.058 378.47 180.355 368.452 202.75 377.5C227.328 387.43 231 411.142 261.5 411.142C292.001 411.142 289.161 385.921 309 377.5C330.17 368.514 354.536 377.743 368 364.58C382.674 350.236 372.112 327.737 381.5 304.5C390.896 281.244 416.5 268.5 416.5 246.5C416.5 224.5 390.478 214.151 381.5 193C372.158 170.99 382.065 147.305 368 133.42C353.936 119.534 331.392 132.547 309.001 123.5Z" stroke="#0465CE" stroke-width="10"/>
</svg>
