<svg width="500" height="500" viewBox="0 0 500 500" fill="none" xmlns="http://www.w3.org/2000/svg">
<path d="M249.5 468C369.622 468 467 370.622 467 250.5C467 130.378 369.622 33 249.5 33C129.378 33 32 130.378 32 250.5C32 370.622 129.378 468 249.5 468Z" fill="#CACACA" fill-opacity="0.6" stroke="#0465CE" stroke-width="10"/>
<path d="M250 345C302.467 345 345 302.467 345 250C345 197.533 302.467 155 250 155C197.533 155 155 197.533 155 250C155 302.467 197.533 345 250 345Z" fill="#ADADAD" stroke="#0465CE" stroke-width="10"/>
<path d="M167.5 144C194.227 118.417 201.805 80.0421 244 78C286.543 75.941 296.514 120.266 326 144C353.666 166.269 391.421 163.623 403.5 205C415.578 246.377 379.965 260.724 366 295.5C355.076 322.702 380.352 372.108 353.5 392.5C319.571 418.267 281.633 380.379 244 379C210.4 377.769 177.043 415.832 147 392.5C119.595 371.217 145.547 323.867 135.5 295.5C123.419 261.393 81.6261 244.995 93.4998 205C103.577 171.056 145.098 165.443 167.5 144Z" stroke="#0465CE" stroke-width="10"/>
</svg>
