<svg width="256" height="251" viewBox="0 0 256 251" fill="none" xmlns="http://www.w3.org/2000/svg">
<path d="M128.5 230.5C186.49 230.5 233.5 183.49 233.5 125.5C233.5 67.5101 186.49 20.5 128.5 20.5C70.5101 20.5 23.5 67.5101 23.5 125.5C23.5 183.49 70.5101 230.5 128.5 230.5Z" fill="#CACACA" fill-opacity="0.6" stroke="#0465CE" stroke-width="15"/>
<path d="M130.616 52H126.124C122.209 68.0446 117.792 81.125 106.572 90.5C94.1155 100.908 85.1484 99.5293 67.3591 96.7942L67.0717 96.75L64 103.25C75.5131 115.069 91.2087 117.49 93.0717 134.5C94.9282 151.449 89.0848 166.318 77.5717 178L83.5717 184.75C95.0717 178 106.8 162.301 130.616 163C154.432 163.699 174.572 184.75 174.572 184.75L180.072 178C168.722 166.461 162.684 152.169 166.572 134.5C169.936 119.211 182.722 115.569 194.072 103.25L191.072 96.75C174.462 99.8799 161.781 96.75 153.072 90.5C139.795 80.973 136.692 66.048 134.744 52H130.616Z" fill="#0465CE" stroke="#0465CE"/>
</svg>
