<svg width="500" height="500" viewBox="0 0 500 500" fill="none" xmlns="http://www.w3.org/2000/svg">
<path d="M249.5 468C369.622 468 467 370.622 467 250.5C467 130.378 369.622 33 249.5 33C129.378 33 32 130.378 32 250.5C32 370.622 129.378 468 249.5 468Z" fill="#CACACA" fill-opacity="0.6" stroke="#0465CE" stroke-width="10"/>
<path d="M250 360C310.751 360 360 310.751 360 250C360 189.249 310.751 140 250 140C189.249 140 140 189.249 140 250C140 310.751 189.249 360 250 360Z" fill="#ADADAD" stroke="#0465CE" stroke-width="10"/>
<path d="M349.5 342C318 384.5 323.965 426 247.482 426C171 426 180 380 153 349.5C126 319 79.5 315.5 79.5 247.5C79.5 179.5 114.5 193.5 147 159.5C179.5 125.5 169.465 71.4999 247.482 71.4999C325.5 71.4999 317.882 121.5 347.5 159.5C377.118 197.5 423 170 423 247.5C423 313 381 299.5 349.5 342Z" stroke="#0465CE" stroke-width="10"/>
</svg>
