<svg width="500" height="500" viewBox="0 0 500 500" fill="none" xmlns="http://www.w3.org/2000/svg">
<path d="M249.5 468C369.622 468 467 370.622 467 250.5C467 130.378 369.622 33 249.5 33C129.378 33 32 130.378 32 250.5C32 370.622 129.378 468 249.5 468Z" fill="#CACACA" fill-opacity="0.6" stroke="#0465CE" stroke-width="10"/>
<path d="M250 330C294.183 330 330 294.183 330 250C330 205.817 294.183 170 250 170C205.817 170 170 205.817 170 250C170 294.183 205.817 330 250 330Z" fill="#ADADAD" stroke="#0465CE" stroke-width="10"/>
<path d="M289.511 110.759V84H217.373V108C163.5 120 111 175 106.5 224.595H85V289.238H110C118 336.5 179.5 384.5 217.373 391.595V417.595H289.511V390.595C341.5 379 382.5 326 389.955 289.238H413.194V224.595H392.955C382.5 172 336.5 118.5 289.511 110.759Z" stroke="#0465CE" stroke-width="10"/>
</svg>
