<svg width="256" height="251" viewBox="0 0 256 251" fill="none" xmlns="http://www.w3.org/2000/svg">
<path d="M129 231C186.99 231 234 183.99 234 126C234 68.0101 186.99 21 129 21C71.0101 21 24 68.0101 24 126C24 183.99 71.0101 231 129 231Z" fill="#CACACA" fill-opacity="0.6" stroke="#0465CE" stroke-width="15"/>
<path d="M168.004 163.743C154.707 180.28 159.223 194.97 126.938 194.969C94.6532 194.968 100.454 175.611 89.0563 163.743C77.6586 151.875 56.0297 151.973 56.0288 125.513C56.0278 99.0534 72.8024 104.5 86.521 91.2711C100.24 78.0418 94.0051 57.0283 126.938 57.0293C159.871 57.0304 154.654 76.4845 167.157 91.2711C179.66 106.058 201.028 95.3569 201.029 125.513C201.029 151 181.3 147.206 168.004 163.743Z" fill="#0465CE"/>
</svg>
