<svg width="500" height="500" viewBox="0 0 500 500" fill="none" xmlns="http://www.w3.org/2000/svg">
<path d="M249.5 468C369.622 468 467 370.622 467 250.5C467 130.378 369.622 33 249.5 33C129.378 33 32 130.378 32 250.5C32 370.622 129.378 468 249.5 468Z" fill="#CACACA" fill-opacity="0.6" stroke="#0465CE" stroke-width="10"/>
<path d="M250 346C302.467 346 345 303.467 345 251C345 198.533 302.467 156 250 156C197.533 156 155 198.533 155 251C155 303.467 197.533 346 250 346Z" fill="#ADADAD" stroke="#0465CE" stroke-width="10"/>
<path fill-rule="evenodd" clip-rule="evenodd" d="M249.5 78.7735L100.78 164.637V336.363L249.5 422.227L398.22 336.363V164.637L249.5 78.7735Z" stroke="#0465CE" stroke-width="10"/>
</svg>
