<svg width="500" height="500" viewBox="0 0 500 500" fill="none" xmlns="http://www.w3.org/2000/svg">
<path d="M249.5 468C369.622 468 467 370.622 467 250.5C467 130.378 369.622 33 249.5 33C129.378 33 32 130.378 32 250.5C32 370.622 129.378 468 249.5 468Z" fill="#CACACA" fill-opacity="0.6" stroke="#0465CE" stroke-width="10"/>
<path d="M250 350C305.228 350 350 305.228 350 250C350 194.772 305.228 150 250 150C194.772 150 150 194.772 150 250C150 305.228 194.772 350 250 350Z" fill="#ADADAD" stroke="#0465CE" stroke-width="10"/>
<path fill-rule="evenodd" clip-rule="evenodd" d="M312.732 95.7322L184.568 96.8507L94.7322 188.268L95.8507 316.432L187.268 406.268L315.432 405.149L405.268 313.732L404.149 185.568L312.732 95.7322Z" stroke="#0465CE" stroke-width="10"/>
</svg>
