<svg width="500" height="500" viewBox="0 0 500 500" fill="none" xmlns="http://www.w3.org/2000/svg">
<g clip-path="url(#clip0_6_100)">
<path fill-rule="evenodd" clip-rule="evenodd" d="M0 369.207L52.1328 449.39L51.5707 480.266L84.8351 509.512L59.6196 534.457L84.8351 561.663L58.4182 588.547L87.1485 613.747L58.9463 646.289L87.1485 672.882L59.6196 702.408L90.0086 731.751L59.6196 759.373L94.2369 784.351L62.4674 811.14L92.5783 841.693L64.2464 866.027L91.8587 897.028L62.4674 922.093L93.9836 950.21L62.5415 979.229L92.3868 1006.08L63.9715 1032.2L92.3281 1058.84L68.623 1082.81L101.6 1111.61L84.9741 1132.44L117.507 1170.18L101.6 1189.3L119.186 1221.79L105.633 1244.75L128.715 1281.63L114.759 1298.77L137.984 1334.81L155.433 1346.06H242.586V278.053L128.715 256.437V310.22H87.1485H17.4382L0.0767769 330.421L0 369.207Z" fill="#CACACA"/>
<path fill-rule="evenodd" clip-rule="evenodd" d="M480 369.207L427.867 449.39L428.429 480.266L395.165 509.512L420.38 534.457L395.165 561.663L421.582 588.547L392.851 613.747L421.054 646.289L392.851 672.882L420.38 702.408L389.991 731.751L420.38 759.373L385.763 784.351L417.533 811.14L387.422 841.693L415.754 866.027L388.141 897.028L417.533 922.093L386.016 950.21L417.459 979.229L387.613 1006.08L416.028 1032.2L387.672 1058.84L411.377 1082.81L378.4 1111.61L395.026 1132.44L362.493 1170.18L378.4 1189.3L360.814 1221.79L374.367 1244.75L351.285 1281.63L365.241 1298.77L342.016 1334.81L324.567 1346.06H237.414V278.053L351.285 256.437V310.22H392.851H462.562L479.923 330.421L480 369.207Z" fill="#CACACA"/>
<path fill-rule="evenodd" clip-rule="evenodd" d="M129.458 389.779V470.942L138.324 586.489L142.168 642.296L157.954 695.449L158.395 781.73L179.803 811.248L182.819 1019.77C182.819 1019.77 211.392 1056.19 234.874 1056.19C245.995 1056.19 242.333 1056.19 242.333 1056.19V357.483H129.458V389.779Z" fill="#ADADAD"/>
<path fill-rule="evenodd" clip-rule="evenodd" d="M350.866 388.966V470.129L342 585.676L338.156 641.483L322.369 694.636L321.929 780.917L300.52 810.435L297.504 1018.96C297.504 1018.96 268.932 1055.38 245.45 1055.38C234.328 1055.38 237.991 1055.38 237.991 1055.38V356.67H350.866V388.966Z" fill="#ADADAD"/>
<path d="M239.994 320.542C315.531 320.542 376.765 259.308 376.765 183.771C376.765 108.234 315.531 47 239.994 47C164.458 47 103.223 108.234 103.223 183.771C103.223 259.308 164.458 320.542 239.994 320.542Z" fill="#CACACA" stroke="#0E64D1" stroke-width="10"/>
</g>
<defs>
<clipPath id="clip0_6_100">
<rect width="500" height="500" fill="white"/>
</clipPath>
</defs>
</svg>
