<svg width="500" height="500" viewBox="0 0 500 500" fill="none" xmlns="http://www.w3.org/2000/svg">
<g clip-path="url(#clip0_6_117)">
<path fill-rule="evenodd" clip-rule="evenodd" d="M0 372.499L52.1328 452.682L51.5707 483.558L84.8351 512.804L59.6196 537.749L84.8351 564.955L58.4182 591.839L87.1485 617.039L58.9463 649.582L87.1485 676.174L59.6196 705.7L90.0086 735.043L59.6196 762.665L94.2369 787.644L62.4674 814.432L92.5783 844.985L64.2464 869.32L91.8587 900.32L62.4674 925.386L93.9836 953.503L62.5415 982.522L92.3868 1009.38L63.9715 1035.49L92.3281 1062.13L68.623 1086.1L101.6 1114.9L84.9741 1135.73L117.507 1173.48L101.6 1192.59L119.186 1225.08L105.633 1248.04L128.715 1284.92L114.759 1302.07L137.984 1338.1L155.433 1349.35H242.586V313.512L128.715 313.512L87.1485 313.512H17.4382L0.0767769 333.714L0 372.499Z" fill="#CACACA"/>
<path fill-rule="evenodd" clip-rule="evenodd" d="M479.999 372.499L427.866 452.682L428.428 483.558L395.164 512.804L420.379 537.749L395.164 564.955L421.581 591.839L392.85 617.039L421.053 649.582L392.85 676.174L420.379 705.7L389.99 735.043L420.379 762.665L385.762 787.644L417.532 814.432L387.421 844.985L415.753 869.32L388.14 900.32L417.532 925.386L386.015 953.503L417.458 982.522L387.612 1009.38L416.027 1035.49L387.671 1062.13L411.376 1086.1L378.399 1114.9L395.025 1135.73L362.492 1173.48L378.399 1192.59L360.813 1225.08L374.366 1248.04L351.284 1284.92L365.24 1302.07L342.015 1338.1L324.566 1349.35H237.413V313.512L351.284 313.512L392.85 313.512H462.561L479.922 333.714L479.999 372.499Z" fill="#CACACA"/>
<path fill-rule="evenodd" clip-rule="evenodd" d="M129.458 393.071V474.234L138.324 589.781L142.168 645.589L157.954 698.741L158.395 785.023L179.803 814.541L182.819 1023.06C182.819 1023.06 211.392 1059.48 234.874 1059.48C245.995 1059.48 242.333 1059.48 242.333 1059.48V360.776H129.458V393.071Z" fill="#ADADAD"/>
<path fill-rule="evenodd" clip-rule="evenodd" d="M350.866 392.258V473.421L342.001 588.968L338.156 644.776L322.37 697.928L321.929 784.21L300.521 813.728L297.505 1022.25C297.505 1022.25 268.933 1058.67 245.45 1058.67C234.329 1058.67 237.991 1058.67 237.991 1058.67V359.963H350.866V392.258Z" fill="#ADADAD"/>
<path d="M173.914 29.62C173.912 29.6223 173.909 29.6246 177.364 33.2396L173.909 29.6246L172.847 30.6398L172.503 32.0684L124.571 231.02L123.519 235.384L127.745 236.898L127.745 236.898L127.745 236.898L127.746 236.898L127.751 236.9L127.774 236.908L127.87 236.943C127.955 236.974 128.084 237.02 128.252 237.081C128.588 237.204 129.082 237.385 129.703 237.616C130.946 238.078 132.698 238.738 134.726 239.531C138.804 241.125 143.916 243.221 148.246 245.29C149.704 245.986 152.208 247.895 155.372 251C158.42 253.99 161.735 257.745 164.798 261.7C167.867 265.663 170.603 269.723 172.544 273.312C174.606 277.125 175.359 279.671 175.359 280.855C175.359 284.794 172.238 288.456 168.213 291.91C167.561 292.469 166.966 292.958 166.383 293.438C166.113 293.659 165.846 293.879 165.576 294.103C164.854 294.702 163.909 295.496 163.219 296.287C162.907 296.644 162.258 297.427 161.881 298.527C161.407 299.909 161.321 302.11 162.973 303.925C164.184 305.257 165.7 305.603 166.265 305.714C167.006 305.861 167.751 305.893 168.376 305.893H240.274H312.172C312.798 305.893 313.543 305.861 314.284 305.714C314.849 305.602 316.365 305.257 317.576 303.925C319.227 302.11 319.141 299.909 318.668 298.527C318.291 297.427 317.642 296.644 317.33 296.287C316.64 295.496 315.695 294.702 314.973 294.103C314.703 293.879 314.436 293.659 314.166 293.437C313.582 292.958 312.988 292.469 312.336 291.91C308.31 288.456 305.189 284.794 305.189 280.855C305.189 279.671 305.943 277.125 308.005 273.312C309.946 269.723 312.681 265.663 315.751 261.7C318.814 257.745 322.129 253.99 325.176 251C328.34 247.895 330.845 245.986 332.302 245.29C336.633 243.221 341.744 241.125 345.823 239.531C347.851 238.738 349.603 238.078 350.846 237.616C351.467 237.385 351.96 237.204 352.297 237.081C352.465 237.02 352.593 236.974 352.679 236.943L352.775 236.908L352.798 236.9L352.803 236.898L352.804 236.898L352.804 236.898L357.029 235.384L355.978 231.02L308.046 32.0684L307.702 30.6398L306.639 29.6246L303.185 33.2396C306.639 29.6246 306.637 29.6223 306.635 29.62L306.63 29.6152L306.619 29.6051L306.595 29.5825L306.588 29.5759C306.572 29.5616 306.555 29.5458 306.536 29.5285C306.493 29.4885 306.44 29.4408 306.377 29.3858C306.252 29.2757 306.088 29.1363 305.883 28.9714C305.474 28.6414 304.902 28.2094 304.15 27.7038C302.645 26.6919 300.426 25.3897 297.358 24.0213C291.216 21.2825 281.713 18.2981 267.764 16.8171C260.071 16.0003 253.801 15.5267 248.752 15.269L248.751 15.269L248.747 15.2688C247.304 15.136 244.602 14.9707 240.275 15.0045L240.274 15.0044L240.274 15.0045C235.946 14.9707 233.245 15.136 231.802 15.2688L231.798 15.269L231.797 15.269C226.748 15.5267 220.478 16.0003 212.785 16.8171C198.836 18.2981 189.333 21.2825 183.191 24.0213C180.122 25.3897 177.904 26.6919 176.399 27.7038C175.647 28.2094 175.075 28.6414 174.666 28.9714C174.461 29.1363 174.297 29.2757 174.172 29.3858C174.109 29.4408 174.056 29.4885 174.012 29.5285C173.99 29.5485 173.971 29.5665 173.954 29.5825L173.93 29.6051L173.919 29.6152L173.914 29.62Z" fill="#C4C4C4" stroke="#0465CE" stroke-width="10"/>
</g>
<defs>
<clipPath id="clip0_6_117">
<rect width="500" height="500" fill="white"/>
</clipPath>
</defs>
</svg>
