<svg width="500" height="500" viewBox="0 0 500 500" fill="none" xmlns="http://www.w3.org/2000/svg">
<path d="M249.5 468C369.622 468 467 370.622 467 250.5C467 130.378 369.622 33 249.5 33C129.378 33 32 130.378 32 250.5C32 370.622 129.378 468 249.5 468Z" fill="#CACACA" fill-opacity="0.6" stroke="#0465CE" stroke-width="10"/>
<path d="M250 345C302.467 345 345 302.467 345 250C345 197.533 302.467 155 250 155C197.533 155 155 197.533 155 250C155 302.467 197.533 345 250 345Z" fill="#ADADAD" stroke="#0465CE" stroke-width="10"/>
<path d="M89 200L242 73L411 200L351.5 387.5H145L89 200Z" stroke="#0465CE" stroke-width="10"/>
</svg>
