<svg width="500" height="500" viewBox="0 0 500 500" fill="none" xmlns="http://www.w3.org/2000/svg">
<path d="M249.5 468C369.622 468 467 370.622 467 250.5C467 130.378 369.622 33 249.5 33C129.378 33 32 130.378 32 250.5C32 370.622 129.378 468 249.5 468Z" fill="#CACACA" fill-opacity="0.6" stroke="#0465CE" stroke-width="10"/>
<path d="M250 345C302.467 345 345 302.467 345 250C345 197.533 302.467 155 250 155C197.533 155 155 197.533 155 250C155 302.467 197.533 345 250 345Z" fill="#ADADAD" stroke="#0465CE" stroke-width="10"/>
<path fill-rule="evenodd" clip-rule="evenodd" d="M206.39 105.444C221.057 101.148 235.565 99 249.913 99C264.261 99 278.608 101.148 292.953 105.444V117.396C302.409 120.419 311.055 124.179 318.89 128.675C326.726 133.171 334.059 138.58 340.89 144.903L352.644 136.45C365.262 150.291 374.833 163.242 381.357 175.304C387.881 187.367 392.429 200.519 395 214.761L385.986 222.92C387.562 232.734 388.35 241.868 388.35 250.32C388.35 258.772 387.562 267.221 385.986 275.668L395 283.409C390.078 301.636 384.387 316.522 377.928 328.069C371.47 339.616 363.042 349.971 352.644 359.134L340.89 352.199C334.331 358.574 326.997 364.118 318.89 368.832C310.783 373.545 302.137 377.291 292.953 380.069V392.693C279.328 397.564 265.17 400 250.481 400C235.791 400 221.094 397.564 206.39 392.693V380.069C195.505 376.919 186.345 373.173 178.911 368.832C171.477 364.49 164.729 358.946 158.666 352.199L145.43 359.134C135.727 352.033 126.882 341.678 118.898 328.069C110.913 314.461 104.947 299.574 101 283.409L112.905 275.668C112.905 267.083 112.905 258.36 112.905 249.5C112.905 240.64 112.905 231.78 112.905 222.92L101 214.761C105.373 201.348 111.339 188.196 118.898 175.304C126.457 162.413 135.301 150.307 145.43 138.987L158.666 144.903C163.649 138.992 170.397 133.582 178.911 128.675C187.425 123.768 196.585 120.008 206.39 117.396V105.444Z" stroke="#0465CE" stroke-width="10"/>
</svg>
