<svg width="500" height="500" viewBox="0 0 500 500" fill="none" xmlns="http://www.w3.org/2000/svg">
<path d="M249.5 468C369.622 468 467 370.622 467 250.5C467 130.378 369.622 33 249.5 33C129.378 33 32 130.378 32 250.5C32 370.622 129.378 468 249.5 468Z" fill="#CACACA" fill-opacity="0.6" stroke="#0465CE" stroke-width="10"/>
<path d="M250 346C302.467 346 345 303.467 345 251C345 198.533 302.467 156 250 156C197.533 156 155 198.533 155 251C155 303.467 197.533 346 250 346Z" fill="#ADADAD" stroke="#0465CE" stroke-width="10"/>
<path fill-rule="evenodd" clip-rule="evenodd" d="M249.5 75.7735C216.617 75.7735 205.288 116.345 181 130C155.752 144.195 117.871 132.035 100.78 161.637C84.1129 190.506 115.598 218.755 115.5 247C115.401 275.579 83.9162 304.154 100.78 333.363C117.871 362.965 147.252 351.305 172.5 365.5C196.788 379.155 216.617 419.227 249.5 419.227C282.382 419.227 294.712 385.655 319 372C344.248 357.805 381.129 362.965 398.219 333.363C415.084 304.154 382.599 275.579 382.5 247C382.402 218.755 414.887 190.506 398.219 161.637C381.129 132.035 344.248 144.195 319 130C294.712 116.345 282.382 75.7735 249.5 75.7735Z" stroke="#0465CE" stroke-width="10"/>
</svg>
