<svg width="256" height="251" viewBox="0 0 256 251" fill="none" xmlns="http://www.w3.org/2000/svg">
<path d="M128.5 230.5C186.49 230.5 233.5 183.49 233.5 125.5C233.5 67.5101 186.49 20.5 128.5 20.5C70.5101 20.5 23.5 67.5101 23.5 125.5C23.5 183.49 70.5101 230.5 128.5 230.5Z" fill="#CACACA" fill-opacity="0.6" stroke="#0465CE" stroke-width="15"/>
<path fill-rule="evenodd" clip-rule="evenodd" d="M123.053 49H127.544H131.672C133.621 63.048 140.193 73.2891 151.389 79.7231C162.584 86.1571 176.487 87.8091 193.096 84.6793L197 90.3429C185.65 102.662 179.975 114.634 179.975 126.26C179.975 137.885 185.65 149.468 197 161.007L193.096 167.756C175.208 164.482 161.829 165.359 152.958 170.387C144.087 175.415 136.992 185.953 131.672 202H123.053C121.053 188.202 114.545 178.167 103.529 171.895C92.5129 165.622 78.9725 164.243 62.9081 167.756L59 161.007C70.5131 149.325 76.2696 137.581 76.2696 125.778C76.2696 113.974 70.5131 102.162 59 90.3429L62.9081 84.6793C80.8886 87.4434 94.4289 86.199 103.529 80.9462C112.629 75.6934 119.137 65.0446 123.053 49Z" fill="#0465CE" stroke="#0465CE"/>
</svg>
