<svg width="500" height="500" viewBox="0 0 500 500" fill="none" xmlns="http://www.w3.org/2000/svg">
<path d="M249.5 468C369.622 468 467 370.622 467 250.5C467 130.378 369.622 33 249.5 33C129.378 33 32 130.378 32 250.5C32 370.622 129.378 468 249.5 468Z" fill="#CACACA" fill-opacity="0.6" stroke="#0465CE" stroke-width="10"/>
<path d="M249 331C293.183 331 329 295.183 329 251C329 206.817 293.183 171 249 171C204.817 171 169 206.817 169 251C169 295.183 204.817 331 249 331Z" fill="#ADADAD" stroke="#0465CE" stroke-width="10"/>
<path fill-rule="evenodd" clip-rule="evenodd" d="M284.011 73.905V100.664C331.956 115.977 364.771 141.689 382.455 177.799C400.139 213.91 404.244 252.221 394.77 292.735L420.321 307.858C417.942 318.525 413.733 329.22 407.694 339.943C401.655 350.666 394.219 360.649 385.385 369.892L359.731 356.3C327.883 387.033 291.14 402.4 249.5 402.4C207.861 402.4 170.291 387.033 136.79 356.3L111.933 369.892C102.774 359.891 95.4086 349.909 89.8368 339.943C84.2649 329.978 80.0688 319.283 77.2485 307.858L101.335 292.735C92.582 249.894 96.9603 211.583 114.47 177.799C131.98 144.016 164.447 118.304 211.873 100.664V73.905C224.732 70.3286 237.036 68.5404 248.785 68.5404C260.533 68.5404 272.275 70.3286 284.011 73.905Z" stroke="#0465CE" stroke-width="10"/>
</svg>
