<svg width="500" height="500" viewBox="0 0 500 500" fill="none" xmlns="http://www.w3.org/2000/svg">
<path d="M249.5 468C369.622 468 467 370.622 467 250.5C467 130.378 369.622 33 249.5 33C129.378 33 32 130.378 32 250.5C32 370.622 129.378 468 249.5 468Z" fill="#CACACA" fill-opacity="0.6" stroke="#0465CE" stroke-width="10"/>
<path d="M250 360C310.751 360 360 310.751 360 250C360 189.249 310.751 140 250 140C189.249 140 140 189.249 140 250C140 310.751 189.249 360 250 360Z" fill="#ADADAD" stroke="#0465CE" stroke-width="10"/>
<path d="M135 173.32C143.625 158.319 162.987 144.345 179.033 126.426C195.079 108.508 193.4 103.233 203.08 89.5063C212.761 75.7795 226.65 69.613 249 69.613C271.35 69.613 283.605 76.9645 293.315 89.5063C303.025 102.048 311.822 116.487 318.568 126.426C325.314 136.366 340.878 143.875 361.375 173.32" stroke="#0465CE" stroke-width="10"/>
<path d="M256.895 385.016C295.441 381.547 287.351 374.748 315.126 372.256C342.9 369.763 341.404 368.097 361.375 368.449C381.346 368.802 398.105 347.07 404.324 337.651C410.544 328.233 418.178 300.666 407.232 285.185C396.286 269.703 390.413 250.5 386.601 238.743C382.789 226.985 380.964 206.403 358.755 169.913" stroke="#0465CE" stroke-width="10"/>
<path d="M257.455 385.014C207.193 385.014 206.633 374.63 178.858 372.137C151.084 369.644 152.58 367.978 132.609 368.331C112.638 368.683 98.8702 347.64 92.6506 338.222C86.4311 328.804 81.7048 297.327 92.6506 281.845C103.596 266.364 106.873 250.407 110.686 238.65C114.498 226.892 113.83 208.231 136.039 171.741" stroke="#0465CE" stroke-width="10"/>
</svg>
