<svg width="256" height="251" viewBox="0 0 256 251" fill="none" xmlns="http://www.w3.org/2000/svg">
<path d="M129 231C186.99 231 234 183.99 234 126C234 68.0101 186.99 21 129 21C71.0101 21 24 68.0101 24 126C24 183.99 71.0101 231 129 231Z" fill="#CACACA" fill-opacity="0.6" stroke="#0465CE" stroke-width="15"/>
<path fill-rule="evenodd" clip-rule="evenodd" d="M149.8 79.5971C141.864 76.3905 135.908 60.3215 130.227 60.2951C124.546 60.2687 116.291 75.5151 105.875 79.3929C97.2114 82.618 81.6245 74.9375 78.7263 80.6872C75.9582 83.2146 84.8457 97.4279 81.2472 106.335C78.1129 114.092 61.906 119.43 61.9322 125.008C61.9482 128.419 76.8787 135.972 81.4309 145.482C85.579 154.147 78.0966 167.396 81.7427 170.78C85.3888 174.163 99.3928 167.316 108.789 171.112C119.1 175.278 126.418 192.406 130.848 192.427C135.278 192.447 144.704 174.338 152.821 171.316C161.483 168.092 175.561 176.068 178.205 173.654C180.85 171.24 172.324 154.829 175.923 145.921C179.525 137.005 194.851 129.036 194.741 125.626C194.631 122.215 179.737 117.529 175.75 109.2C171.601 100.533 182.679 85.701 177.771 81.1476C172.863 76.5942 159.195 83.3926 149.8 79.5971Z" fill="#0465CE"/>
</svg>
